#!OML:ASF X:\für Bonn\!DataBase\2005_08_12_Daniel\c3d\Daniel.ASF
:FULLY-SPECIFIED
:DEGREES
190
root 4.79282 17.0619 -1.19614 -358.463 -84.1211 352.881
lowerback 12.2945 -5.25111 5.71229
upperback 3.43692 -6.34649 1.3745
thorax -3.69234 -3.2356 -0.761198
lowerneck 11.2726 14.5672 2.73548
upperneck 1.82065 19.327 -14.8087
head 0.491225 9.85878 -5.15336
rclavicle 8.60738e-014 -3.4191e-014
rhumerus -48.299 21.9709 -106.446
rradius 98.3374
rwrist 4.20663
rhand -21.4238 31.2599
rfingers 7.12502
rthumb 4.96514 1.33807
lclavicle 8.60738e-014 -3.4191e-014
lhumerus -39.6446 -3.62289 92.7569
lradius 128.467
lwrist 3.96747
lhand -21.4432 -24.8666
lfingers 7.12502
lthumb 4.94644 5.05565
rfemur -17.4334 -3.74334 17.716
rtibia 43.107
rfoot -25.8589 -12.8286
rtoes -8.79195
lfemur -3.75562 -8.72707 -20.0725
ltibia 43.2167
lfoot -37.3056 16.3441
ltoes -16.5286
191
root 4.78952 17.0579 -1.18296 -359.104 -84.3209 353.474
lowerback 12.3009 -5.23823 5.49423
upperback 3.5121 -6.36305 1.32777
thorax -3.60066 -3.24151 -0.692054
lowerneck 11.3606 14.6664 2.80259
upperneck 1.55766 19.4461 -14.703
head 0.407818 9.93567 -5.14843
rclavicle 4.86029e-014 -2.06736e-014
rhumerus -48.5054 22.3343 -106.71
rradius 98.4059
rwrist 4.32915
rhand -21.4954 31.1881
rfingers 7.12502
rthumb 4.89599 1.26464
lclavicle 4.86029e-014 -2.06736e-014
lhumerus -39.5833 -3.50285 92.9331
lradius 128.433
lwrist 3.91644
lhand -21.4776 -24.7605
lfingers 7.12502
lthumb 4.91318 5.16256
rfemur -17.4884 -3.46164 17.6097
rtibia 43.2301
rfoot -25.6651 -11.8688
rtoes -8.74124
lfemur -3.62091 -8.75882 -20.2831
ltibia 43.1994
lfoot -37.412 16.5619
ltoes -16.4936
192
root 4.78567 17.0527 -1.17046 -359.518 -84.5213 353.834
lowerback 12.3166 -5.22174 5.34368
upperback 3.57424 -6.36505 1.27163
thorax -3.53491 -3.24099 -0.670127
lowerneck 11.4777 14.7583 2.81604
upperneck 1.27978 19.5457 -14.5502
head 0.304064 10.0027 -5.1278
rclavicle 4.69132e-014 -2.8625e-014
rhumerus -48.747 22.6298 -106.99
rradius 98.4538
rwrist 4.42589
rhand -21.6495 31.1951
rfingers 7.12502
rthumb 4.74724 1.26826
lclavicle 4.69132e-014 -2.8625e-014
lhumerus -39.552 -3.47271 93.0701
lradius 128.42
lwrist 3.9229
lhand -21.573 -24.7005
lfingers 7.12502
lthumb 4.82109 5.2247
rfemur -17.5428 -3.22382 17.5323
rtibia 43.364
rfoot -25.4266 -10.7694
rtoes -8.51252
lfemur -3.48835 -8.76221 -20.4562
ltibia 43.2006
lfoot -37.5367 16.7629
ltoes -16.4679
193
root 4.7813 17.0474 -1.15958 -359.955 -84.7153 354.213
lowerback 12.3155 -5.21109 5.19433
upperback 3.65231 -6.37684 1.22203
thorax -3.4432 -3.24527 -0.642942
lowerneck 11.5761 14.8575 2.80975
upperneck 0.996616 19.6529 -14.4157
head 0.20203 10.0725 -5.10884
rclavicle 8.90555e-014 -2.54444e-014
rhumerus -48.955 22.9276 -107.244
rradius 98.4819
rwrist 4.50493
rhand -21.8499 31.1332
rfingers 7.12502
rthumb 4.55372 1.20212
lclavicle 8.90555e-014 -2.54444e-014
lhumerus -39.4563 -3.47318 93.2047
lradius 128.382
lwrist 3.97161
lhand -21.6979 -24.6598
lfingers 7.12502
lthumb 4.70044 5.2681
rfemur -17.6056 -2.9701 17.4654
rtibia 43.5152
rfoot -25.2219 -9.79165
rtoes -8.40054
lfemur -3.35935 -8.78325 -20.6212
ltibia 43.212
lfoot -37.6575 16.9537
ltoes -16.4352
194
root 4.77606 17.0412 -1.14964 -360.409 -84.9235 354.625
lowerback 12.2873 -5.18733 5.07839
upperback 3.73169 -6.3691 1.16238
thorax -3.33894 -3.23986 -0.650176
lowerneck 11.6702 14.9521 2.72849
upperneck 0.69878 19.743 -14.2174
head 0.0812805 10.1322 -5.06421
rclavicle 1.19271e-015 -7.15625e-015
rhumerus -49.1391 23.1867 -107.494
rradius 98.503
rwrist 4.56386
rhand -22.1081 31.0416
rfingers 7.12502
rthumb 4.30435 1.10536
lclavicle 1.19271e-015 -7.15625e-015
lhumerus -39.3375 -3.54914 93.321
lradius 128.357
lwrist 4.043
lhand -21.8468 -24.5952
lfingers 7.12502
lthumb 4.55672 5.3358
rfemur -17.6868 -2.70396 17.4044
rtibia 43.6818
rfoot -25.0468 -8.93489
rtoes -8.47741
lfemur -3.25411 -8.7376 -20.7647
ltibia 43.2339
lfoot -37.7687 17.1193
ltoes -16.4551
195
root 4.7696 17.0343 -1.14045 -361.212 -85.1358 355.38
lowerback 12.2566 -5.16069 4.96216
upperback 3.81176 -6.35775 1.0952
thorax -3.23342 -3.23272 -0.665781
lowerneck 11.7116 15.0616 2.54703
upperneck 0.442495 19.8455 -13.9335
head -0.0359989 10.1917 -4.97762
rclavicle 3.26007e-014 -1.43125e-014
rhumerus -49.3063 23.4146 -107.711
rradius 98.5048
rwrist 4.67236
rhand -22.3614 30.9172
rfingers 7.12502
rthumb 4.05977 0.976117
lclavicle 3.26007e-014 -1.43125e-014
lhumerus -39.2058 -3.65556 93.4507
lradius 128.303
lwrist 4.11995
lhand -22.0225 -24.5529
lfingers 7.12502
lthumb 4.387 5.38171
rfemur -17.7699 -2.45667 17.3141
rtibia 43.8678
rfoot -24.8595 -8.06261
rtoes -8.5378
lfemur -3.12905 -8.73433 -20.9546
ltibia 43.2582
lfoot -37.8996 17.3223
ltoes -16.4591
196
root 4.76157 17.0279 -1.13202 -361.886 -85.3594 356.028
lowerback 12.177 -5.13422 4.88949
upperback 3.89454 -6.3446 1.01347
thorax -3.10458 -3.22436 -0.725042
lowerneck 11.79 15.1653 2.41493
upperneck 0.156136 19.9442 -13.6874
head -0.160434 10.2521 -4.91317
rclavicle 3.43897e-014 1.11319e-014
rhumerus -49.4644 23.5935 -107.935
rradius 98.4905
rwrist 4.74063
rhand -22.5021 30.8125
rfingers 7.12502
rthumb 3.92393 0.868907
lclavicle 3.43897e-014 1.11319e-014
lhumerus -39.0639 -3.78728 93.5267
lradius 128.262
lwrist 4.22346
lhand -22.1659 -24.5621
lfingers 7.12502
lthumb 4.24859 5.37532
rfemur -17.8834 -2.21263 17.2445
rtibia 44.0627
rfoot -24.6754 -7.22706
rtoes -8.41525
lfemur -3.02736 -8.73468 -21.1261
ltibia 43.2876
lfoot -38.0549 17.5335
ltoes -16.4492
197
root 4.75243 17.0205 -1.12464 -362.755 -85.5827 356.895
lowerback 12.0783 -5.10636 4.8096
upperback 3.95646 -6.32949 0.939312
thorax -2.98569 -3.21508 -0.773237
lowerneck 11.884 15.271 2.23889
upperneck -0.133899 20.0385 -13.4299
head -0.294508 10.3098 -4.84291
rclavicle 3.73715e-014 -1.11319e-014
rhumerus -49.6168 23.7047 -108.137
rradius 98.4562
rwrist 4.82082
rhand -22.5481 30.7761
rfingers 7.12502
rthumb 3.87948 0.831703
lclavicle 3.73715e-014 -1.11319e-014
lhumerus -38.9565 -3.9247 93.6393
lradius 128.22
lwrist 4.3153
lhand -22.3162 -24.6064
lfingers 7.12502
lthumb 4.10339 5.33382
rfemur -18.0274 -1.96268 17.1682
rtibia 44.2784
rfoot -24.5156 -6.45856
rtoes -8.27672
lfemur -2.94735 -8.71685 -21.2962
ltibia 43.3203
lfoot -38.1986 17.7237
ltoes -16.4528
198
root 4.74211 17.0129 -1.11829 -363.439 -85.8201 357.573
lowerback 11.9588 -5.06977 4.76604
upperback 4.03885 -6.30121 0.859115
thorax -2.83771 -3.19896 -0.852522
lowerneck 11.9014 15.3724 2.08584
upperneck -0.36729 20.1407 -13.1513
head -0.399733 10.3659 -4.76056
rclavicle 2.3059e-014 2.38542e-015
rhumerus -49.7301 23.7968 -108.314
rradius 98.4149
rwrist 4.92065
rhand -22.6057 30.7129
rfingers 7.12502
rthumb 3.82386 0.767422
lclavicle 2.3059e-014 2.38542e-015
lhumerus -38.7938 -4.08457 93.724
lradius 128.145
lwrist 4.41188
lhand -22.4698 -24.7319
lfingers 7.12502
lthumb 3.95511 5.21111
rfemur -18.1721 -1.722 17.1136
rtibia 44.4993
rfoot -24.3645 -5.73619
rtoes -8.01519
lfemur -2.86242 -8.68262 -21.4386
ltibia 43.3594
lfoot -38.3742 17.9056
ltoes -16.453
199
root 4.73057 17.0043 -1.11258 -364.492 -86.0581 358.624
lowerback 11.8402 -5.04066 4.69885
upperback 4.11209 -6.28435 0.787979
thorax -2.6971 -3.18867 -0.906921
lowerneck 11.9482 15.4867 1.90527
upperneck -0.624903 20.2529 -12.8912
head -0.517228 10.4286 -4.68474
rclavicle 1.00386e-014 -1.55052e-014
rhumerus -49.8426 23.8898 -108.47
rradius 98.3522
rwrist 4.96203
rhand -22.5853 30.721
rfingers 7.12502
rthumb 3.84361 0.775941
lclavicle 1.00386e-014 -1.55052e-014
lhumerus -38.6313 -4.20903 93.8143
lradius 128.063
lwrist 4.46606
lhand -22.6007 -24.8917
lfingers 7.12502
lthumb 3.8287 5.05364
rfemur -18.327 -1.48497 17.0437
rtibia 44.7412
rfoot -24.226 -5.10573
rtoes -7.72787
lfemur -2.77897 -8.68507 -21.6147
ltibia 43.4036
lfoot -38.5616 18.1132
ltoes -16.4768
200
root 4.7178 16.9962 -1.10813 -365.719 -86.2959 359.863
lowerback 11.7035 -5.00315 4.64455
upperback 4.17132 -6.25452 0.711515
thorax -2.56257 -3.17179 -0.97649
lowerneck 11.9888 15.5845 1.75272
upperneck -0.836903 20.3518 -12.6313
head -0.619076 10.4821 -4.61017
rclavicle 1.75924e-014 7.95139e-016
rhumerus -49.9541 23.9252 -108.614
rradius 98.2935
rwrist 4.99836
rhand -22.5197 30.7038
rfingers 7.12502
rthumb 3.90694 0.75985
lclavicle 1.75924e-014 7.95139e-016
lhumerus -38.4868 -4.35139 93.8834
lradius 127.955
lwrist 4.54682
lhand -22.7138 -25.1146
lfingers 7.12502
lthumb 3.71949 4.8327
rfemur -18.5017 -1.25762 16.9742
rtibia 44.9907
rfoot -24.1015 -4.58489
rtoes -7.42178
lfemur -2.70774 -8.6329 -21.7724
ltibia 43.4469
lfoot -38.725 18.2998
ltoes -16.5182
201
root 4.70419 16.9871 -1.10522 -367.086 -86.5249 361.243
lowerback 11.5598 -4.96923 4.59222
upperback 4.23284 -6.22948 0.631351
thorax -2.42277 -3.15716 -1.05073
lowerneck 12.039 15.685 1.63393
upperneck -1.0688 20.4588 -12.3871
head -0.723336 10.5407 -4.54641
rclavicle 2.90226e-014 1.27222e-014
rhumerus -50.0318 23.9401 -108.765
rradius 98.2228
rwrist 5.0006
rhand -22.4135 30.7384
rfingers 7.12502
rthumb 4.00951 0.79635
lclavicle 2.90226e-014 1.27222e-014
lhumerus -38.3237 -4.51642 93.9185
lradius 127.844
lwrist 4.59172
lhand -22.8397 -25.3421
lfingers 7.12502
lthumb 3.59793 4.60732
rfemur -18.6772 -1.06613 16.9049
rtibia 45.2516
rfoot -24.0375 -4.40804
rtoes -7.7166
lfemur -2.63796 -8.60721 -21.9258
ltibia 43.4957
lfoot -38.9281 18.465
ltoes -16.5386
202
root 4.68869 16.9786 -1.10261 -368.683 -86.7598 362.858
lowerback 11.4022 -4.93744 4.53792
upperback 4.29418 -6.20778 0.55739
thorax -2.27485 -3.14413 -1.11803
lowerneck 12.0438 15.7811 1.52565
upperneck -1.24893 20.5672 -12.1599
head -0.802854 10.5968 -4.48213
rclavicle -1.03368e-014 1.59028e-015
rhumerus -50.1141 23.9687 -108.9
rradius 98.1673
rwrist 5.02712
rhand -22.3049 30.7634
rfingers 7.12502
rthumb 4.11437 0.823398
lclavicle -1.03368e-014 1.59028e-015
lhumerus -38.1616 -4.66258 93.9169
lradius 127.748
lwrist 4.66233
lhand -22.9053 -25.5761
lfingers 7.12502
lthumb 3.53455 4.37436
rfemur -18.8657 -0.957375 16.8304
rtibia 45.5187
rfoot -23.9645 -4.25199
rtoes -8.00657
lfemur -2.55895 -8.59188 -22.0916
ltibia 43.538
lfoot -39.1156 18.6726
ltoes -16.5683
